<svg id="dateIcon" xmlns="http://www.w3.org/2000/svg" viewBox="0 0 376.47 315.08">
  <defs>
    <style>
      .cls-1 {
        fill: #cccccb;
      }

      .cls-2 {
        fill: #fff;
      }
    </style>
  </defs>
  <title>dateIcon</title>
  <polygon id="dateBody" class="cls-1" points="361.11 57.56 361.11 0 318.62 0 318.62 57.56 257.18 57.56 257.18 0 214.7 0 214.7 57.56 152.31 57.56 152.31 0 109.83 0 109.83 57.56 59.44 57.56 59.44 0 16.95 0 16.95 57.56 0 57.56 0 315.08 376.47 315.08 376.47 57.56 361.11 57.56"/>
  <path id="numberIcon" class="cls-2" d="M200.41,322.1h0a13.07,13.07,0,0,0,13.07,13.07H341.54a13.07,13.07,0,0,1,10.29,21.13L258.69,475.17a13.07,13.07,0,0,0,2.9,18.85l2.93,2a13.07,13.07,0,0,0,17.89-3L396.54,338.63a13,13,0,0,0,2.56-7.77V322.1A13.07,13.07,0,0,0,386,309H213.48A13.07,13.07,0,0,0,200.41,322.1Z" transform="translate(-116.14 -214.25)"/>
</svg>
